<?xml version="1.0" standalone="no"?>
<!DOCTYPE svg PUBLIC "-//W3C//DTD SVG 20010904//EN"
 "http://www.w3.org/TR/2001/REC-SVG-20010904/DTD/svg10.dtd">
<svg version="1.0" xmlns="http://www.w3.org/2000/svg"
 width="500.000000pt" height="500.000000pt" viewBox="0 0 500.000000 500.000000"
 preserveAspectRatio="xMidYMid meet">
<metadata>
Created by potrace 1.11, written by Peter Selinger 2001-2013
</metadata>
<g transform="translate(0.000000,500.000000) scale(0.100000,-0.100000)"
fill="#000000" stroke="none">
<path d="M2309 4746 c-2 -2 -31 -6 -64 -10 -496 -52 -968 -279 -1330 -641
-218 -217 -368 -438 -486 -713 -43 -99 -93 -247 -110 -322 -6 -25 -13 -54 -15
-65 -7 -30 -32 -165 -39 -210 -11 -68 -14 -457 -5 -520 5 -33 12 -85 15 -115
4 -30 9 -58 11 -61 2 -4 6 -24 9 -45 13 -84 67 -261 121 -397 150 -371 420
-718 749 -960 28 -20 55 -41 60 -45 22 -18 234 -140 295 -169 137 -66 371
-149 470 -167 14 -2 45 -9 70 -14 25 -6 68 -13 95 -17 28 -3 77 -10 110 -15
56 -8 449 -6 505 3 25 4 121 20 130 22 3 1 25 5 50 9 105 18 329 88 445 139
532 235 950 656 1175 1183 70 163 124 347 149 504 6 36 13 81 17 100 13 75 13
455 0 550 -28 193 -50 290 -103 450 -202 604 -661 1099 -1249 1350 -81 35
-224 86 -264 95 -8 2 -31 9 -50 15 -32 9 -185 39 -285 55 -44 7 -469 17 -476
11z"/>
</g>
</svg>
